<?xml version="1.0" encoding="UTF-8"?>
<svg xmlns="http://www.w3.org/2000/svg" 
  xmlns:xlink="http://www.w3.org/1999/xlink" width="100%" height="100%" viewBox="0 0 605 385" version="1.1">
  <defs>
    <filter id="alpha" filterUnits="objectBoundingBox" x="0%" y="0%" width="100%" height="100%">
      <feColorMatrix type="matrix" in="SourceGraphic" values="0 0 0 0 1 0 0 0 0 1 0 0 0 0 1 0 0 0 1 0"/>
    </filter>
    <mask id="mask0">
      <g filter="url(#alpha)">
        <rect x="0" y="0" width="605" height="385" style="fill:rgb(0%,0%,0%);fill-opacity:0.580392;stroke:none;"/>
      </g>
    </mask>
    <clipPath id="clip1">
      <rect x="0" y="0" width="605" height="385"/>
    </clipPath>
    <g id="surface5" clip-path="url(#clip1)">
      <path style=" stroke:none;fill-rule:nonzero;fill:rgb(0%,46.666667%,69.803922%);fill-opacity:1;" d="M 297.070312 209.199219 L 297.070312 194.550781 L 347.519531 165.398438 L 347.519531 180.050781 Z M 297.070312 209.199219 "/>
    </g>
    <mask id="mask1">
      <g filter="url(#alpha)">
        <rect x="0" y="0" width="605" height="385" style="fill:rgb(0%,0%,0%);fill-opacity:0.8;stroke:none;"/>
      </g>
    </mask>
    <clipPath id="clip2">
      <rect x="0" y="0" width="605" height="385"/>
    </clipPath>
    <g id="surface8" clip-path="url(#clip2)">
      <path style=" stroke:none;fill-rule:nonzero;fill:rgb(100%,100%,100%);fill-opacity:1;" d="M 449.699219 88.050781 C 449.648438 88 449.601562 88 449.601562 87.949219 C 449.199219 87.5 448.648438 87.199219 448.050781 87.148438 C 448 87.148438 447.898438 87.148438 447.851562 87.199219 C 447.800781 87.199219 447.75 87.25 447.699219 87.25 C 447.601562 87.351562 447.601562 87.601562 447.699219 87.898438 C 447.851562 88.25 448.050781 88.601562 448.300781 88.898438 L 448.351562 88.851562 L 448.75 88.449219 L 448.898438 88.601562 L 450.398438 90.101562 C 450.398438 90.101562 450.449219 90.101562 450.449219 90.050781 C 450.449219 90.050781 450.5 90.050781 450.5 90 C 450.601562 89.898438 450.601562 89.648438 450.5 89.351562 C 450.398438 88.851562 450.101562 88.398438 449.699219 88.050781 Z M 449.699219 88.050781 "/>
    </g>
    <mask id="mask2">
      <g filter="url(#alpha)">
        <rect x="0" y="0" width="605" height="385" style="fill:rgb(0%,0%,0%);fill-opacity:0.8;stroke:none;"/>
      </g>
    </mask>
    <clipPath id="clip3">
      <rect x="0" y="0" width="605" height="385"/>
    </clipPath>
    <g id="surface11" clip-path="url(#clip3)">
      <path style=" stroke:none;fill-rule:nonzero;fill:rgb(100%,100%,100%);fill-opacity:1;" d="M 455.449219 82.101562 C 455.199219 81.898438 454.949219 81.699219 454.648438 81.601562 C 454.449219 81.5 454.25 81.449219 454 81.449219 C 453.898438 81.449219 453.851562 81.449219 453.75 81.5 C 453.648438 81.601562 453.648438 81.851562 453.75 82.148438 C 453.898438 82.5 454.101562 82.851562 454.351562 83.148438 C 454.351562 83.148438 454.351562 83.199219 454.398438 83.199219 L 454.800781 82.800781 L 456.351562 84.351562 C 456.398438 84.351562 456.5 84.351562 456.5 84.300781 C 456.699219 84.101562 456.5 83.199219 455.648438 82.398438 C 455.601562 82.300781 455.550781 82.199219 455.449219 82.101562 Z M 455.449219 82.101562 "/>
    </g>
    <mask id="mask3">
      <g filter="url(#alpha)">
        <rect x="0" y="0" width="605" height="385" style="fill:rgb(0%,0%,0%);fill-opacity:0.8;stroke:none;"/>
      </g>
    </mask>
    <clipPath id="clip4">
      <rect x="0" y="0" width="605" height="385"/>
    </clipPath>
    <g id="surface14" clip-path="url(#clip4)">
      <path style=" stroke:none;fill-rule:nonzero;fill:rgb(100%,100%,100%);fill-opacity:1;" d="M 460.300781 77.25 C 459.949219 76.949219 459.5 76.75 459.050781 76.699219 C 458.949219 76.699219 458.898438 76.699219 458.800781 76.75 C 458.601562 76.949219 458.75 77.550781 459.300781 78.25 C 459.300781 78.25 459.300781 78.300781 459.351562 78.300781 L 459.75 77.898438 L 461.449219 79.601562 C 461.5 79.601562 461.550781 79.550781 461.601562 79.550781 C 461.800781 79.351562 461.601562 78.449219 460.75 77.648438 C 460.601562 77.5 460.449219 77.351562 460.300781 77.25 Z M 460.300781 77.25 "/>
    </g>
    <mask id="mask4">
      <g filter="url(#alpha)">
        <rect x="0" y="0" width="605" height="385" style="fill:rgb(0%,0%,0%);fill-opacity:0.8;stroke:none;"/>
      </g>
    </mask>
    <clipPath id="clip5">
      <rect x="0" y="0" width="605" height="385"/>
    </clipPath>
    <g id="surface17" clip-path="url(#clip5)">
      <path style=" stroke:none;fill-rule:nonzero;fill:rgb(100%,100%,100%);fill-opacity:1;" d="M 450.199219 87.351562 L 453.75 83.800781 C 453.398438 83.398438 453.101562 82.949219 452.949219 82.449219 C 452.75 81.949219 452.800781 81.398438 453.101562 80.949219 L 447.75 86.300781 C 448.449219 86.199219 449.351562 86.601562 450.199219 87.351562 Z M 450.199219 87.351562 "/>
    </g>
    <mask id="mask5">
      <g filter="url(#alpha)">
        <rect x="0" y="0" width="605" height="385" style="fill:rgb(0%,0%,0%);fill-opacity:0.8;stroke:none;"/>
      </g>
    </mask>
    <clipPath id="clip6">
      <rect x="0" y="0" width="605" height="385"/>
    </clipPath>
    <g id="surface20" clip-path="url(#clip6)">
      <path style=" stroke:none;fill-rule:nonzero;fill:rgb(100%,100%,100%);fill-opacity:1;" d="M 452.398438 95.550781 L 447.148438 90.351562 L 447.800781 89.699219 C 447.351562 89.25 447.050781 88.75 446.851562 88.148438 C 446.75 87.851562 446.699219 87.550781 446.75 87.25 L 445.25 88.75 L 443.25 80.699219 C 443.148438 81.148438 443.101562 81.648438 443.050781 82.148438 L 443.050781 84.199219 C 443.449219 89.550781 447.199219 94.101562 452.398438 95.550781 Z M 452.398438 95.550781 "/>
    </g>
    <mask id="mask6">
      <g filter="url(#alpha)">
        <rect x="0" y="0" width="605" height="385" style="fill:rgb(0%,0%,0%);fill-opacity:0.8;stroke:none;"/>
      </g>
    </mask>
    <clipPath id="clip7">
      <rect x="0" y="0" width="605" height="385"/>
    </clipPath>
    <g id="surface23" clip-path="url(#clip7)">
      <path style=" stroke:none;fill-rule:nonzero;fill:rgb(100%,100%,100%);fill-opacity:1;" d="M 459.699219 70.800781 L 460.101562 73.898438 L 453.199219 80.851562 C 453.851562 80.300781 455 80.601562 456.050781 81.5 L 458.601562 78.949219 C 458.101562 78.398438 457.851562 77.75 457.800781 77.050781 C 457.800781 76.699219 457.898438 76.398438 458.148438 76.148438 C 458.75 75.550781 459.898438 75.800781 460.949219 76.648438 L 462.101562 75.5 L 468.699219 82.101562 C 468.300781 76.75 464.699219 72.351562 459.699219 70.800781 Z M 459.699219 70.800781 "/>
    </g>
    <clipPath id="clip8">
      <rect x="0" y="0" width="605" height="385"/>
    </clipPath>
    <g id="surface26" clip-path="url(#clip8)">
      <path style=" stroke:none;fill-rule:nonzero;fill:rgb(100%,100%,100%);fill-opacity:1;" d="M 28.5 231.300781 C 28.5 230.5 28.601562 229.851562 28.800781 229.398438 C 28.949219 228.949219 29.300781 228.398438 29.851562 227.851562 L 31.199219 226.449219 C 31.75 225.800781 32.050781 225.101562 32.050781 224.351562 C 32.050781 223.648438 31.851562 223.050781 31.5 222.648438 C 31.148438 222.25 30.601562 222.050781 29.851562 222.050781 C 29.148438 222.050781 28.601562 222.25 28.148438 222.601562 C 27.699219 222.949219 27.5 223.449219 27.5 224.101562 L 25.601562 224.101562 C 25.601562 223 26 222.101562 26.800781 221.398438 C 27.601562 220.699219 28.601562 220.398438 29.851562 220.398438 C 31.148438 220.398438 32.148438 220.75 32.851562 221.449219 C 33.550781 222.148438 33.949219 223.101562 33.949219 224.300781 C 33.949219 225.5 33.398438 226.648438 32.300781 227.851562 L 31.199219 228.949219 C 30.699219 229.5 30.449219 230.300781 30.449219 231.351562 Z M 28.398438 234.550781 C 28.398438 234.25 28.5 234 28.699219 233.75 C 28.898438 233.5 29.148438 233.449219 29.550781 233.449219 C 29.949219 233.449219 30.199219 233.550781 30.398438 233.75 C 30.601562 233.949219 30.699219 234.199219 30.699219 234.550781 C 30.699219 234.898438 30.601562 235.101562 30.398438 235.300781 C 30.199219 235.5 29.949219 235.601562 29.550781 235.601562 C 29.148438 235.601562 28.898438 235.5 28.699219 235.300781 C 28.5 235.101562 28.398438 234.851562 28.398438 234.550781 Z M 28.398438 234.550781 "/>
    </g>
    <clipPath id="clip9">
      <rect x="0" y="0" width="605" height="385"/>
    </clipPath>
    <g id="surface29" clip-path="url(#clip9)">
      <path style=" stroke:none;fill-rule:nonzero;fill:rgb(100%,100%,100%);fill-opacity:1;" d="M 147.75 295.351562 L 152.898438 295.351562 L 152.898438 297.550781 L 147.75 297.550781 L 147.75 303.398438 L 145.398438 303.398438 L 145.398438 297.550781 L 140.25 297.550781 L 140.25 295.351562 L 145.398438 295.351562 L 145.398438 289.949219 L 147.75 289.949219 Z M 147.75 295.351562 "/>
    </g>
  </defs>
  <g id="surface1">
    <path style="fill:none;stroke-width:1;stroke-linecap:butt;stroke-linejoin:miter;stroke:rgb(50.196078%,50.980392%,52.156863%);stroke-opacity:1;stroke-dasharray:12,12;stroke-miterlimit:10;" d="M 193.140625 403.203125 L 292.640625 461.296875 L 459.640625 364.898438 L 459.640625 326.296875 L 492.640625 345.796875 " transform="matrix(0.5,0,0,0.5,0,0)"/>
    <path style="fill:none;stroke-width:3;stroke-linecap:butt;stroke-linejoin:miter;stroke:rgb(20.392157%,20%,21.960784%);stroke-opacity:1;stroke-dasharray:12,12;stroke-miterlimit:10;" d="M 526.640625 325.5 L 343.234375 219.601562 " transform="matrix(0.5,0,0,0.5,0,0)"/>
    <path style="fill:none;stroke-width:3;stroke-linecap:butt;stroke-linejoin:miter;stroke:rgb(20.392157%,20%,21.960784%);stroke-opacity:1;stroke-dasharray:12,12;stroke-miterlimit:10;" d="M 559.640625 383.703125 L 392.4375 480.5 " transform="matrix(0.5,0,0,0.5,0,0)"/>
    <path style="fill:none;stroke-width:5;stroke-linecap:butt;stroke-linejoin:miter;stroke:rgb(2.745098%,37.254902%,65.490196%);stroke-opacity:1;stroke-dasharray:12,12;stroke-miterlimit:10;" d="M 661.140625 364.5 L 795.039062 441.898438 L 960.640625 345.296875 " transform="matrix(0.5,0,0,0.5,0,0)"/>
    <path style="fill:none;stroke-width:1;stroke-linecap:butt;stroke-linejoin:miter;stroke:rgb(20.392157%,20%,21.960784%);stroke-opacity:1;stroke-dasharray:12,12;stroke-miterlimit:10;" d="M 627.9375 384 L 728.140625 441.796875 L 728.140625 480.398438 " transform="matrix(0.5,0,0,0.5,0,0)"/>
    <path style="fill:none;stroke-width:1;stroke-linecap:butt;stroke-linejoin:miter;stroke:rgb(13.72549%,12.156863%,12.54902%);stroke-opacity:1;stroke-miterlimit:10;" d="M 625.726562 306.40625 L 630.53125 303.609375 " transform="matrix(0.5,0,0,0.5,0,0)"/>
    <path style="fill:none;stroke-width:1;stroke-linecap:butt;stroke-linejoin:miter;stroke:rgb(13.72549%,12.156863%,12.54902%);stroke-opacity:1;stroke-dasharray:11.826,11.826;stroke-miterlimit:10;" d="M 640.03125 298.203125 L 794.429688 210.304688 L 825.328125 112.203125 " transform="matrix(0.5,0,0,0.5,0,0)"/>
    <path style="fill:none;stroke-width:1;stroke-linecap:butt;stroke-linejoin:miter;stroke:rgb(13.72549%,12.156863%,12.54902%);stroke-opacity:1;stroke-miterlimit:10;" d="M 826.929688 106.90625 L 828.625 101.609375 " transform="matrix(0.5,0,0,0.5,0,0)"/>
    <path style="fill-rule:nonzero;fill:rgb(24.705882%,74.509804%,96.078431%);fill-opacity:1;stroke-width:1;stroke-linecap:butt;stroke-linejoin:miter;stroke:rgb(11.764706%,23.137255%,76.078431%);stroke-opacity:1;stroke-miterlimit:10;" d="M 695.039062 360.101562 L 695.039062 330.796875 L 594.140625 272 L 492.640625 330.5 L 492.640625 359.796875 L 594.140625 418.398438 Z M 695.039062 360.101562 " transform="matrix(0.5,0,0,0.5,0,0)"/>
    <path style="fill-rule:nonzero;fill:rgb(24.705882%,74.509804%,96.078431%);fill-opacity:1;stroke-width:1;stroke-linecap:butt;stroke-linejoin:miter;stroke:rgb(11.764706%,23.137255%,76.078431%);stroke-opacity:1;stroke-miterlimit:10;" d="M 594.140625 418.398438 L 594.140625 389.101562 L 695.039062 330.796875 L 695.039062 360.101562 Z M 594.140625 418.398438 " transform="matrix(0.5,0,0,0.5,0,0)"/>
    <path style="fill:none;stroke-width:1;stroke-linecap:butt;stroke-linejoin:miter;stroke:rgb(11.764706%,23.137255%,76.078431%);stroke-opacity:1;stroke-miterlimit:10;" d="M 492.640625 330.601562 L 594.140625 389.101562 " transform="matrix(0.5,0,0,0.5,0,0)"/>
    <path style="fill-rule:nonzero;fill:rgb(93.333333%,93.333333%,93.333333%);fill-opacity:1;stroke-width:1;stroke-linecap:butt;stroke-linejoin:miter;stroke:rgb(13.72549%,12.156863%,12.54902%);stroke-opacity:1;stroke-dasharray:11.53,11.53;stroke-miterlimit:10;" d="M 875.351562 74.5 C 875.351562 59.476562 854.445312 47.296875 828.65625 47.296875 C 802.867188 47.296875 781.953125 59.476562 781.953125 74.5 C 781.953125 89.523438 802.867188 101.695312 828.65625 101.695312 C 854.445312 101.695312 875.351562 89.523438 875.351562 74.5 Z M 875.351562 74.5 " transform="matrix(0.5,0,0,0.5,0,0)"/>
    <path style="fill-rule:nonzero;fill:rgb(0%,0%,0%);fill-opacity:1;stroke-width:1;stroke-linecap:butt;stroke-linejoin:miter;stroke:rgb(13.72549%,12.156863%,12.54902%);stroke-opacity:1;stroke-miterlimit:10;" d="M 802.335938 18.703125 L 802.335938 74.5 C 802.335938 83 814.039062 89.796875 828.539062 89.796875 C 843.039062 89.796875 854.734375 82.898438 854.734375 74.5 L 854.734375 18.703125 Z M 802.335938 18.703125 " transform="matrix(0.5,0,0,0.5,0,0)"/>
    <path style="fill-rule:nonzero;fill:rgb(100%,100%,100%);fill-opacity:1;stroke-width:1;stroke-linecap:butt;stroke-linejoin:miter;stroke:rgb(13.72549%,12.156863%,12.54902%);stroke-opacity:1;stroke-miterlimit:10;" d="M 854.640625 18.796875 C 854.640625 10.351562 842.90625 3.5 828.4375 3.5 C 813.96875 3.5 802.234375 10.351562 802.234375 18.796875 C 802.234375 27.25 813.96875 34.101562 828.4375 34.101562 C 842.90625 34.101562 854.640625 27.25 854.640625 18.796875 Z M 854.640625 18.796875 " transform="matrix(0.5,0,0,0.5,0,0)"/>
    <path style="fill-rule:nonzero;fill:rgb(95.686275%,95.686275%,95.686275%);fill-opacity:1;stroke-width:4;stroke-linecap:butt;stroke-linejoin:miter;stroke:rgb(2.745098%,37.254902%,65.490196%);stroke-opacity:1;stroke-dasharray:11.512,11.512;stroke-miterlimit:10;" d="M 1042.445312 327.4375 C 1042.445312 312.414062 1021.585938 300.234375 995.851562 300.234375 C 970.109375 300.234375 949.25 312.414062 949.25 327.4375 C 949.25 342.460938 970.109375 354.640625 995.851562 354.640625 C 1021.585938 354.640625 1042.445312 342.460938 1042.445312 327.4375 Z M 1042.445312 327.4375 " transform="matrix(0.5,0,0,0.5,0,0)"/>
    <path style="fill-rule:nonzero;fill:rgb(0%,0%,0%);fill-opacity:1;stroke-width:1;stroke-linecap:butt;stroke-linejoin:miter;stroke:rgb(13.72549%,12.156863%,12.54902%);stroke-opacity:1;stroke-miterlimit:10;" d="M 969.546875 300.382812 L 969.546875 327.578125 C 969.546875 336.078125 981.25 342.882812 995.648438 342.882812 C 1010.046875 342.882812 1021.75 336.078125 1021.75 327.578125 L 1021.75 300.382812 Z M 969.546875 300.382812 " transform="matrix(0.5,0,0,0.5,0,0)"/>
    <path style="fill-rule:nonzero;fill:rgb(100%,100%,100%);fill-opacity:1;stroke-width:1;stroke-linecap:butt;stroke-linejoin:miter;stroke:rgb(13.72549%,12.156863%,12.54902%);stroke-opacity:1;stroke-miterlimit:10;" d="M 1021.75 300.382812 C 1021.75 291.929688 1010.0625 285.078125 995.648438 285.078125 C 981.234375 285.078125 969.546875 291.929688 969.546875 300.382812 C 969.546875 308.828125 981.234375 315.679688 995.648438 315.679688 C 1010.0625 315.679688 1021.75 308.828125 1021.75 300.382812 Z M 1021.75 300.382812 " transform="matrix(0.5,0,0,0.5,0,0)"/>
    <path style="fill-rule:nonzero;fill:rgb(95.686275%,95.686275%,95.686275%);fill-opacity:1;stroke-width:3;stroke-linecap:butt;stroke-linejoin:miter;stroke:rgb(20.392157%,20%,21.960784%);stroke-opacity:1;stroke-dasharray:11.53,11.53;stroke-miterlimit:10;" d="M 406.117188 499.65625 C 406.117188 484.640625 385.210938 472.460938 359.414062 472.460938 C 333.625 472.460938 312.71875 484.640625 312.71875 499.65625 C 312.71875 514.679688 333.625 526.859375 359.414062 526.859375 C 385.210938 526.859375 406.117188 514.679688 406.117188 499.65625 Z M 406.117188 499.65625 " transform="matrix(0.5,0,0,0.5,0,0)"/>
    <path style="fill-rule:nonzero;fill:rgb(0%,0%,0%);fill-opacity:1;stroke-width:1;stroke-linecap:butt;stroke-linejoin:miter;stroke:rgb(13.72549%,12.156863%,12.54902%);stroke-opacity:1;stroke-miterlimit:10;" d="M 333.117188 443.859375 L 333.117188 499.65625 C 333.117188 508.15625 344.820312 514.960938 359.320312 514.960938 C 373.820312 514.960938 385.515625 508.0625 385.515625 499.65625 L 385.515625 443.859375 Z M 333.117188 443.859375 " transform="matrix(0.5,0,0,0.5,0,0)"/>
    <path style="fill-rule:nonzero;fill:rgb(100%,100%,100%);fill-opacity:1;stroke-width:1;stroke-linecap:butt;stroke-linejoin:miter;stroke:rgb(13.72549%,12.156863%,12.54902%);stroke-opacity:1;stroke-miterlimit:10;" d="M 385.414062 443.960938 C 385.414062 435.507812 373.6875 428.65625 359.21875 428.65625 C 344.75 428.65625 333.015625 435.507812 333.015625 443.960938 C 333.015625 452.40625 344.75 459.257812 359.21875 459.257812 C 373.6875 459.257812 385.414062 452.40625 385.414062 443.960938 Z M 385.414062 443.960938 " transform="matrix(0.5,0,0,0.5,0,0)"/>
    <path style="fill-rule:nonzero;fill:rgb(93.333333%,93.333333%,93.333333%);fill-opacity:1;stroke-width:1;stroke-linecap:butt;stroke-linejoin:miter;stroke:rgb(20.392157%,20%,21.960784%);stroke-opacity:1;stroke-dasharray:11.53,11.53;stroke-miterlimit:10;" d="M 741.351562 499.84375 C 741.351562 484.820312 720.445312 472.648438 694.65625 472.648438 C 668.859375 472.648438 647.953125 484.820312 647.953125 499.84375 C 647.953125 514.867188 668.859375 527.046875 694.65625 527.046875 C 720.445312 527.046875 741.351562 514.867188 741.351562 499.84375 Z M 741.351562 499.84375 " transform="matrix(0.5,0,0,0.5,0,0)"/>
    <path style="fill-rule:nonzero;fill:rgb(0%,0%,0%);fill-opacity:1;stroke-width:1;stroke-linecap:butt;stroke-linejoin:miter;stroke:rgb(13.72549%,12.156863%,12.54902%);stroke-opacity:1;stroke-miterlimit:10;" d="M 668.351562 460.882812 L 668.351562 499.882812 C 668.351562 508.382812 680.054688 515.1875 694.554688 515.1875 C 709.054688 515.1875 720.757812 508.382812 720.757812 499.882812 L 720.757812 460.882812 C 720.757812 460.882812 668.351562 460.882812 668.351562 460.882812 Z M 668.351562 460.882812 " transform="matrix(0.5,0,0,0.5,0,0)"/>
    <path style="fill-rule:nonzero;fill:rgb(100%,100%,100%);fill-opacity:1;stroke-width:1;stroke-linecap:butt;stroke-linejoin:miter;stroke:rgb(13.72549%,12.156863%,12.54902%);stroke-opacity:1;stroke-miterlimit:10;" d="M 720.65625 460.882812 C 720.65625 452.4375 708.921875 445.585938 694.453125 445.585938 C 679.984375 445.585938 668.257812 452.4375 668.257812 460.882812 C 668.257812 469.335938 679.984375 476.1875 694.453125 476.1875 C 708.921875 476.1875 720.65625 469.335938 720.65625 460.882812 Z M 720.65625 460.882812 " transform="matrix(0.5,0,0,0.5,0,0)"/>
    <path style="fill-rule:nonzero;fill:rgb(93.333333%,93.333333%,93.333333%);fill-opacity:1;stroke-width:1;stroke-linecap:butt;stroke-linejoin:miter;stroke:rgb(20.392157%,20%,21.960784%);stroke-opacity:1;stroke-dasharray:11.53,11.53;stroke-miterlimit:10;" d="M 339.625 615.804688 C 339.625 600.78125 318.71875 588.609375 292.929688 588.609375 C 267.132812 588.609375 246.226562 600.78125 246.226562 615.804688 C 246.226562 630.828125 267.132812 643.007812 292.929688 643.007812 C 318.71875 643.007812 339.625 630.828125 339.625 615.804688 Z M 339.625 615.804688 " transform="matrix(0.5,0,0,0.5,0,0)"/>
    <path style=" stroke:none;fill-rule:nonzero;fill:rgb(65.490196%,66.27451%,67.45098%);fill-opacity:1;" d="M 131.648438 103.359375 L 161.648438 86.058594 C 162.199219 85.707031 162.847656 85.707031 163.398438 86.058594 L 176.648438 93.707031 C 177.496094 94.207031 177.746094 95.257812 177.296875 96.109375 C 177.148438 96.359375 176.949219 96.609375 176.648438 96.757812 L 146.648438 114.109375 C 146.097656 114.457031 145.449219 114.457031 144.898438 114.109375 L 131.648438 106.410156 C 130.796875 105.910156 130.546875 104.808594 131.046875 103.957031 C 131.199219 103.707031 131.398438 103.507812 131.648438 103.359375 Z M 131.648438 103.359375 "/>
    <path style=" stroke:none;fill-rule:nonzero;fill:rgb(65.490196%,66.27451%,67.45098%);fill-opacity:1;" d="M 131.648438 101.957031 L 161.648438 84.660156 C 162.199219 84.308594 162.847656 84.308594 163.398438 84.660156 L 176.648438 92.308594 C 177.496094 92.808594 177.746094 93.859375 177.296875 94.707031 C 177.148438 94.957031 176.949219 95.207031 176.648438 95.359375 L 146.648438 112.707031 C 146.097656 113.058594 145.449219 113.058594 144.898438 112.707031 L 131.648438 105.007812 C 130.796875 104.507812 130.546875 103.410156 131.046875 102.558594 C 131.199219 102.308594 131.398438 102.109375 131.648438 101.957031 Z M 131.648438 101.957031 "/>
    <path style="fill:none;stroke-width:1;stroke-linecap:butt;stroke-linejoin:miter;stroke:rgb(65.490196%,66.27451%,67.45098%);stroke-opacity:1;stroke-miterlimit:10;" d="M 354.492188 190.71875 L 354.492188 187.117188 " transform="matrix(0.5,0,0,0.5,0,0)"/>
    <path style="fill:none;stroke-width:1;stroke-linecap:butt;stroke-linejoin:miter;stroke:rgb(65.490196%,66.27451%,67.45098%);stroke-opacity:1;stroke-miterlimit:10;" d="M 262.09375 210.117188 L 262.09375 206.515625 " transform="matrix(0.5,0,0,0.5,0,0)"/>
    <path style=" stroke:none;fill-rule:nonzero;fill:rgb(0%,0%,0%);fill-opacity:1;" d="M 173.847656 91.609375 L 176.199219 92.957031 C 177.246094 93.558594 176.546875 94.410156 175.898438 94.859375 L 146.996094 111.410156 C 146.496094 111.707031 145.898438 111.707031 145.398438 111.410156 L 132.648438 104.007812 C 132.199219 103.757812 131.597656 103.160156 132.546875 102.609375 L 161.898438 85.609375 C 162.398438 85.308594 162.996094 85.308594 163.496094 85.609375 L 165.597656 86.910156 L 165.246094 87.757812 C 165.046875 88.257812 165.199219 88.808594 165.648438 89.058594 L 170.796875 91.859375 C 170.996094 91.957031 171.246094 92.007812 171.449219 92.007812 Z M 173.847656 91.609375 "/>
    <path style=" stroke:none;fill-rule:nonzero;fill:rgb(65.490196%,66.27451%,67.45098%);fill-opacity:1;" d="M 433.546875 103.453125 L 463.546875 86.152344 C 464.097656 85.800781 464.746094 85.800781 465.296875 86.152344 L 478.546875 93.800781 C 479.394531 94.300781 479.644531 95.351562 479.195312 96.203125 C 479.046875 96.453125 478.847656 96.703125 478.546875 96.851562 L 448.546875 114.152344 C 447.996094 114.5 447.347656 114.5 446.796875 114.152344 L 433.546875 106.453125 C 432.695312 105.953125 432.445312 104.902344 432.894531 104.050781 C 433.097656 103.800781 433.296875 103.601562 433.546875 103.453125 Z M 433.546875 103.453125 "/>
    <path style=" stroke:none;fill-rule:nonzero;fill:rgb(65.490196%,66.27451%,67.45098%);fill-opacity:1;" d="M 433.546875 102.050781 L 463.546875 84.75 C 464.097656 84.402344 464.746094 84.402344 465.296875 84.75 L 478.546875 92.402344 C 479.394531 92.902344 479.644531 93.953125 479.195312 94.800781 C 479.046875 95.050781 478.847656 95.300781 478.546875 95.453125 L 448.546875 112.75 C 447.996094 113.101562 447.347656 113.101562 446.796875 112.75 L 433.546875 105.050781 C 432.695312 104.550781 432.445312 103.5 432.894531 102.652344 C 433.097656 102.402344 433.296875 102.203125 433.546875 102.050781 Z M 433.546875 102.050781 "/>
    <path style="fill:none;stroke-width:1;stroke-linecap:butt;stroke-linejoin:miter;stroke:rgb(65.490196%,66.27451%,67.45098%);stroke-opacity:1;stroke-miterlimit:10;" d="M 958.289062 190.804688 L 958.289062 187.304688 " transform="matrix(0.5,0,0,0.5,0,0)"/>
    <path style="fill:none;stroke-width:1;stroke-linecap:butt;stroke-linejoin:miter;stroke:rgb(65.490196%,66.27451%,67.45098%);stroke-opacity:1;stroke-miterlimit:10;" d="M 865.890625 210.203125 L 865.890625 206.601562 " transform="matrix(0.5,0,0,0.5,0,0)"/>
    <path style=" stroke:none;fill-rule:nonzero;fill:rgb(0%,0%,0%);fill-opacity:1;" d="M 475.746094 91.703125 L 478.097656 93.050781 C 479.144531 93.652344 478.445312 94.5 477.796875 94.953125 L 448.894531 111.5 C 448.394531 111.800781 447.796875 111.800781 447.296875 111.5 L 434.546875 104.050781 C 434.097656 103.800781 433.496094 103.203125 434.445312 102.652344 L 463.796875 85.652344 C 464.296875 85.351562 464.894531 85.351562 465.394531 85.652344 L 467.546875 86.902344 L 467.195312 87.75 C 466.996094 88.25 467.144531 88.800781 467.597656 89.050781 L 472.695312 91.902344 C 472.894531 92 473.144531 92.050781 473.347656 92.050781 Z M 475.746094 91.703125 "/>
    <path style="fill:none;stroke-width:3;stroke-linecap:butt;stroke-linejoin:miter;stroke:rgb(20.392157%,20%,21.960784%);stroke-opacity:1;stroke-dasharray:12,12;stroke-miterlimit:10;" d="M 688.734375 327.203125 L 869.539062 223.296875 " transform="matrix(0.5,0,0,0.5,0,0)"/>
    <path style="fill-rule:nonzero;fill:rgb(93.333333%,93.333333%,93.333333%);fill-opacity:1;stroke-width:1;stroke-linecap:butt;stroke-linejoin:miter;stroke:rgb(13.72549%,12.156863%,12.54902%);stroke-opacity:1;stroke-dasharray:11.53,11.53;stroke-miterlimit:10;" d="M 641.570312 172.976562 C 641.570312 157.953125 620.664062 145.78125 594.875 145.78125 C 569.078125 145.78125 548.171875 157.953125 548.171875 172.976562 C 548.171875 188 569.078125 200.179688 594.875 200.179688 C 620.664062 200.179688 641.570312 188 641.570312 172.976562 Z M 641.570312 172.976562 " transform="matrix(0.5,0,0,0.5,0,0)"/>
    <path style="fill-rule:nonzero;fill:rgb(0%,0%,0%);fill-opacity:1;stroke-width:1;stroke-linecap:butt;stroke-linejoin:miter;stroke:rgb(13.72549%,12.156863%,12.54902%);stroke-opacity:1;stroke-miterlimit:10;" d="M 568.570312 134.015625 L 568.570312 173.015625 C 568.570312 181.515625 580.273438 188.320312 594.773438 188.320312 C 609.273438 188.320312 620.976562 181.515625 620.976562 173.015625 L 620.976562 134.015625 C 620.976562 134.015625 568.570312 134.015625 568.570312 134.015625 Z M 568.570312 134.015625 " transform="matrix(0.5,0,0,0.5,0,0)"/>
    <path style="fill-rule:nonzero;fill:rgb(100%,100%,100%);fill-opacity:1;stroke-width:1;stroke-linecap:butt;stroke-linejoin:miter;stroke:rgb(13.72549%,12.156863%,12.54902%);stroke-opacity:1;stroke-miterlimit:10;" d="M 620.875 134.015625 C 620.875 125.570312 609.140625 118.71875 594.671875 118.71875 C 580.203125 118.71875 568.476562 125.570312 568.476562 134.015625 C 568.476562 142.46875 580.203125 149.320312 594.671875 149.320312 C 609.140625 149.320312 620.875 142.46875 620.875 134.015625 Z M 620.875 134.015625 " transform="matrix(0.5,0,0,0.5,0,0)"/>
    <path style="fill:none;stroke-width:1;stroke-linecap:butt;stroke-linejoin:miter;stroke:rgb(13.72549%,12.156863%,12.54902%);stroke-opacity:1;stroke-dasharray:12,12;stroke-miterlimit:10;" d="M 581.039062 279.601562 L 493.734375 229.203125 L 559.9375 191 " transform="matrix(0.5,0,0,0.5,0,0)"/>
    <path style="fill-rule:nonzero;fill:rgb(95.686275%,95.686275%,95.686275%);fill-opacity:1;stroke-width:3;stroke-linecap:butt;stroke-linejoin:miter;stroke:rgb(2.745098%,37.254902%,65.490196%);stroke-opacity:1;stroke-dasharray:11.53,11.53;stroke-miterlimit:10;" d="M 339.445312 306.515625 C 339.445312 291.492188 318.53125 279.3125 292.742188 279.3125 C 266.953125 279.3125 246.039062 291.492188 246.039062 306.515625 C 246.039062 321.539062 266.953125 333.71875 292.742188 333.71875 C 318.53125 333.71875 339.445312 321.539062 339.445312 306.515625 Z M 339.445312 306.515625 " transform="matrix(0.5,0,0,0.5,0,0)"/>
    <path style="fill-rule:nonzero;fill:rgb(0%,0%,0%);fill-opacity:1;stroke-width:1;stroke-linecap:butt;stroke-linejoin:miter;stroke:rgb(13.72549%,12.156863%,12.54902%);stroke-opacity:1;stroke-miterlimit:10;" d="M 266.445312 279.367188 L 266.445312 306.5625 C 266.445312 315.0625 278.140625 321.867188 292.640625 321.867188 C 307.140625 321.867188 318.84375 315.0625 318.84375 306.5625 L 318.84375 279.367188 Z M 266.445312 279.367188 " transform="matrix(0.5,0,0,0.5,0,0)"/>
    <path style="fill-rule:nonzero;fill:rgb(100%,100%,100%);fill-opacity:1;stroke-width:1;stroke-linecap:butt;stroke-linejoin:miter;stroke:rgb(13.72549%,12.156863%,12.54902%);stroke-opacity:1;stroke-miterlimit:10;" d="M 318.84375 279.367188 C 318.84375 270.914062 307.109375 264.0625 292.640625 264.0625 C 278.171875 264.0625 266.445312 270.914062 266.445312 279.367188 C 266.445312 287.8125 278.171875 294.664062 292.640625 294.664062 C 307.109375 294.664062 318.84375 287.8125 318.84375 279.367188 Z M 318.84375 279.367188 " transform="matrix(0.5,0,0,0.5,0,0)"/>
    <path style="fill:none;stroke-width:4;stroke-linecap:butt;stroke-linejoin:miter;stroke:rgb(2.745098%,37.254902%,65.490196%);stroke-opacity:1;stroke-dasharray:12,12;stroke-miterlimit:10;" d="M 327.039062 324.898438 L 460.335938 403.203125 L 514.039062 372.101562 " transform="matrix(0.5,0,0,0.5,0,0)"/>
    <path style="fill-rule:nonzero;fill:rgb(95.686275%,95.686275%,95.686275%);fill-opacity:1;stroke-width:1;stroke-linecap:butt;stroke-linejoin:miter;stroke:rgb(57.647059%,58.431373%,59.607843%);stroke-opacity:1;stroke-dasharray:11.53,11.53;stroke-miterlimit:10;" d="M 1210.03125 383.882812 C 1210.03125 368.859375 1189.125 356.6875 1163.335938 356.6875 C 1137.539062 356.6875 1116.632812 368.859375 1116.632812 383.882812 C 1116.632812 398.90625 1137.539062 411.085938 1163.335938 411.085938 C 1189.125 411.085938 1210.03125 398.90625 1210.03125 383.882812 Z M 1210.03125 383.882812 " transform="matrix(0.5,0,0,0.5,0,0)"/>
    <path style="fill-rule:nonzero;fill:rgb(0%,0%,0%);fill-opacity:1;stroke-width:1;stroke-linecap:butt;stroke-linejoin:miter;stroke:rgb(13.72549%,12.156863%,12.54902%);stroke-opacity:1;stroke-miterlimit:10;" d="M 1137.039062 328 L 1137.039062 383.796875 C 1137.039062 392.296875 1148.734375 399.101562 1163.234375 399.101562 C 1177.734375 399.101562 1189.4375 392.296875 1189.4375 383.796875 L 1189.4375 328 Z M 1137.039062 328 " transform="matrix(0.5,0,0,0.5,0,0)"/>
    <path style="fill-rule:nonzero;fill:rgb(100%,100%,100%);fill-opacity:1;stroke-width:1;stroke-linecap:butt;stroke-linejoin:miter;stroke:rgb(13.72549%,12.156863%,12.54902%);stroke-opacity:1;stroke-miterlimit:10;" d="M 1189.335938 328.101562 C 1189.335938 319.648438 1177.609375 312.796875 1163.140625 312.796875 C 1148.664062 312.796875 1136.9375 319.648438 1136.9375 328.101562 C 1136.9375 336.546875 1148.664062 343.398438 1163.140625 343.398438 C 1177.609375 343.398438 1189.335938 336.546875 1189.335938 328.101562 Z M 1189.335938 328.101562 " transform="matrix(0.5,0,0,0.5,0,0)"/>
    <path style="fill:none;stroke-width:1;stroke-linecap:butt;stroke-linejoin:miter;stroke:rgb(50.196078%,50.980392%,52.156863%);stroke-opacity:1;stroke-dasharray:12,12;stroke-miterlimit:10;" d="M 694.640625 345.203125 L 728.140625 325.898438 L 728.140625 364.5 L 962.4375 499.796875 L 1129.835938 403.203125 " transform="matrix(0.5,0,0,0.5,0,0)"/>
    <path style="fill-rule:nonzero;fill:rgb(95.686275%,95.686275%,95.686275%);fill-opacity:1;stroke-width:1;stroke-linecap:butt;stroke-linejoin:miter;stroke:rgb(57.647059%,58.431373%,59.607843%);stroke-opacity:1;stroke-dasharray:11.53,11.53;stroke-miterlimit:10;" d="M 205.71875 383.882812 C 205.71875 368.859375 184.8125 356.6875 159.015625 356.6875 C 133.226562 356.6875 112.320312 368.859375 112.320312 383.882812 C 112.320312 398.90625 133.226562 411.085938 159.015625 411.085938 C 184.8125 411.085938 205.71875 398.90625 205.71875 383.882812 Z M 205.71875 383.882812 " transform="matrix(0.5,0,0,0.5,0,0)"/>
    <path style="fill-rule:nonzero;fill:rgb(0%,0%,0%);fill-opacity:1;stroke-width:1;stroke-linecap:butt;stroke-linejoin:miter;stroke:rgb(13.72549%,12.156863%,12.54902%);stroke-opacity:1;stroke-miterlimit:10;" d="M 132.71875 328.085938 L 132.71875 383.882812 C 132.71875 392.382812 144.421875 399.1875 158.921875 399.1875 C 173.421875 399.1875 185.117188 392.28125 185.117188 383.882812 L 185.117188 328.085938 Z M 132.71875 328.085938 " transform="matrix(0.5,0,0,0.5,0,0)"/>
    <path style="fill-rule:nonzero;fill:rgb(100%,100%,100%);fill-opacity:1;stroke-width:1;stroke-linecap:butt;stroke-linejoin:miter;stroke:rgb(13.72549%,12.156863%,12.54902%);stroke-opacity:1;stroke-miterlimit:10;" d="M 185.015625 328.1875 C 185.015625 319.734375 173.289062 312.882812 158.820312 312.882812 C 144.351562 312.882812 132.617188 319.734375 132.617188 328.1875 C 132.617188 336.632812 144.351562 343.484375 158.820312 343.484375 C 173.289062 343.484375 185.015625 336.632812 185.015625 328.1875 Z M 185.015625 328.1875 " transform="matrix(0.5,0,0,0.5,0,0)"/>
    <use xlink:href="#surface5" mask="url(#mask0)"/>
    <path style="fill:none;stroke-width:1;stroke-linecap:butt;stroke-linejoin:miter;stroke:rgb(20.392157%,20%,21.960784%);stroke-opacity:1;stroke-dasharray:12,12;stroke-miterlimit:10;" d="M 606.9375 411 L 627.9375 422.296875 L 594.140625 441.796875 L 460.234375 519.101562 L 326.335938 596.5 " transform="matrix(0.5,0,0,0.5,0,0)"/>
    <path style="fill-rule:nonzero;fill:rgb(93.333333%,93.333333%,93.333333%);fill-opacity:1;stroke-width:1;stroke-linecap:butt;stroke-linejoin:miter;stroke:rgb(20.392157%,20%,21.960784%);stroke-opacity:1;stroke-dasharray:11.53,11.53;stroke-miterlimit:10;" d="M 104.640625 480.5 C 104.640625 465.484375 83.726562 453.304688 57.9375 453.304688 C 32.148438 453.304688 11.234375 465.484375 11.234375 480.5 C 11.234375 495.523438 32.148438 507.703125 57.9375 507.703125 C 83.726562 507.703125 104.640625 495.523438 104.640625 480.5 Z M 104.640625 480.5 " transform="matrix(0.5,0,0,0.5,0,0)"/>
    <path style="fill:none;stroke-width:1;stroke-linecap:butt;stroke-linejoin:miter;stroke:rgb(20.392157%,20%,21.960784%);stroke-opacity:1;stroke-dasharray:12,12;stroke-miterlimit:10;" d="M 260.640625 595.796875 L 192.4375 557.796875 " transform="matrix(0.5,0,0,0.5,0,0)"/>
    <path style="fill-rule:nonzero;fill:rgb(93.333333%,93.333333%,93.333333%);fill-opacity:1;stroke-width:1;stroke-linecap:butt;stroke-linejoin:miter;stroke:rgb(20.392157%,20%,21.960784%);stroke-opacity:1;stroke-dasharray:11.53,11.53;stroke-miterlimit:10;" d="M 205.53125 538.898438 C 205.53125 523.882812 184.625 511.703125 158.835938 511.703125 C 133.039062 511.703125 112.132812 523.882812 112.132812 538.898438 C 112.132812 553.921875 133.039062 566.101562 158.835938 566.101562 C 184.625 566.101562 205.53125 553.921875 205.53125 538.898438 Z M 205.53125 538.898438 " transform="matrix(0.5,0,0,0.5,0,0)"/>
    <path style="fill:none;stroke-width:1;stroke-linecap:butt;stroke-linejoin:miter;stroke:rgb(20.392157%,20%,21.960784%);stroke-opacity:1;stroke-dasharray:12,12;stroke-miterlimit:10;" d="M 259.4375 635.101562 L 192.4375 673.796875 " transform="matrix(0.5,0,0,0.5,0,0)"/>
    <path style="fill-rule:nonzero;fill:rgb(93.333333%,93.333333%,93.333333%);fill-opacity:1;stroke-width:1;stroke-linecap:butt;stroke-linejoin:miter;stroke:rgb(20.392157%,20%,21.960784%);stroke-opacity:1;stroke-dasharray:11.53,11.53;stroke-miterlimit:10;" d="M 205.71875 693.359375 C 205.71875 678.335938 184.8125 666.164062 159.015625 666.164062 C 133.226562 666.164062 112.320312 678.335938 112.320312 693.359375 C 112.320312 708.382812 133.226562 720.5625 159.015625 720.5625 C 184.8125 720.5625 205.71875 708.382812 205.71875 693.359375 Z M 205.71875 693.359375 " transform="matrix(0.5,0,0,0.5,0,0)"/>
    <path style="fill:none;stroke-width:1;stroke-linecap:butt;stroke-linejoin:miter;stroke:rgb(20.392157%,20%,21.960784%);stroke-opacity:1;stroke-dasharray:12,12;stroke-miterlimit:10;" d="M 292.9375 588.703125 L 292.640625 538.898438 L 125.539062 441.898438 L 92.039062 461.203125 " transform="matrix(0.5,0,0,0.5,0,0)"/>
    <path style=" stroke:none;fill-rule:nonzero;fill:rgb(12.941176%,58.823529%,95.294118%);fill-opacity:1;" d="M 163.289062 83.238281 C 163.289062 90.308594 157.558594 96.039062 150.488281 96.039062 C 143.417969 96.039062 137.6875 90.308594 137.6875 83.238281 C 137.6875 76.167969 143.417969 70.4375 150.488281 70.4375 C 157.558594 70.4375 163.289062 76.167969 163.289062 83.238281 Z M 163.289062 83.238281 "/>
    <path style=" stroke:none;fill-rule:nonzero;fill:rgb(100%,100%,100%);fill-opacity:1;" d="M 156.324219 79.261719 L 154.324219 79.261719 C 154.273438 81.511719 152.425781 83.359375 150.175781 83.308594 C 147.925781 83.261719 146.125 81.410156 146.175781 79.160156 C 146.175781 76.910156 148.023438 75.109375 150.273438 75.109375 C 151.273438 75.109375 152.273438 75.511719 153.023438 76.160156 L 151.824219 76.808594 L 152.824219 77.058594 L 153.925781 77.308594 L 154.976562 77.609375 L 155.175781 77.109375 L 155.476562 76.109375 L 155.625 75.710938 L 156.023438 74.558594 L 154.824219 75.210938 C 152.625 72.660156 148.824219 72.410156 146.273438 74.609375 C 145.023438 75.710938 144.273438 77.261719 144.175781 78.910156 L 144.175781 79.210938 C 144.175781 79.808594 144.273438 80.460938 144.425781 81.011719 C 145.625 85.609375 150.226562 92.359375 150.226562 92.359375 C 150.226562 92.359375 156.375 83.558594 156.324219 79.261719 Z M 156.324219 79.261719 "/>
    <path style=" stroke:none;fill-rule:nonzero;fill:rgb(100%,100%,100%);fill-opacity:1;" d="M 149.375 78.308594 C 148.875 78.808594 148.875 79.609375 149.375 80.109375 C 149.875 80.609375 150.675781 80.609375 151.175781 80.109375 C 151.425781 79.859375 151.523438 79.558594 151.574219 79.210938 C 151.574219 78.910156 151.476562 78.609375 151.273438 78.359375 L 151.226562 78.308594 C 150.675781 77.808594 149.875 77.808594 149.375 78.308594 Z M 149.375 78.308594 "/>
    <path style=" stroke:none;fill-rule:nonzero;fill:rgb(0%,36.470588%,50.588235%);fill-opacity:1;" d="M 468.75 83.101562 C 468.75 90.195312 462.996094 95.949219 455.898438 95.949219 C 448.804688 95.949219 443.050781 90.195312 443.050781 83.101562 C 443.050781 76.003906 448.804688 70.25 455.898438 70.25 C 462.996094 70.25 468.75 76.003906 468.75 83.101562 Z M 468.75 83.101562 "/>
    <path style=" stroke:none;fill-rule:nonzero;fill:rgb(100%,100%,100%);fill-opacity:1;" d="M 443.050781 79.949219 L 443.050781 82.148438 C 443.101562 81.648438 443.148438 81.199219 443.25 80.699219 Z M 443.050781 79.949219 "/>
    <path style=" stroke:none;fill-rule:nonzero;fill:rgb(0%,36.078431%,50.196078%);fill-opacity:1;" d="M 468.75 82 L 462.148438 75.398438 L 461 76.550781 C 459.949219 75.699219 458.800781 75.449219 458.199219 76.050781 C 457.949219 76.300781 457.851562 76.601562 457.851562 76.949219 C 457.898438 77.648438 458.199219 78.351562 458.648438 78.851562 L 456.050781 81.398438 C 455 80.5 453.800781 80.199219 453.199219 80.75 L 453.101562 80.851562 C 452.800781 81.300781 452.75 81.851562 452.949219 82.351562 C 453.148438 82.851562 453.398438 83.300781 453.75 83.699219 L 450.199219 87.25 C 449.398438 86.5 448.449219 86.101562 447.800781 86.199219 C 447.550781 86.25 447.300781 86.351562 447.101562 86.550781 C 446.949219 86.699219 446.851562 86.949219 446.800781 87.148438 C 446.75 87.449219 446.800781 87.75 446.898438 88.050781 C 447.101562 88.75 447.398438 89.25 447.851562 89.699219 L 447.199219 90.351562 L 452.398438 95.550781 C 453.25 95.800781 454.148438 95.949219 455.101562 96 L 456.800781 96 C 463.199219 95.601562 468.300781 90.550781 468.800781 84.148438 L 468.800781 82.101562 C 468.75 82.101562 468.75 82.050781 468.75 82 Z M 450.601562 90 C 450.550781 90 450.550781 90 450.601562 90 C 450.550781 90.050781 450.550781 90.050781 450.550781 90.050781 L 450.5 90.101562 L 449 88.601562 L 448.851562 88.449219 L 448.449219 88.851562 L 448.398438 88.898438 C 448.148438 88.601562 447.949219 88.25 447.800781 87.898438 C 447.699219 87.601562 447.699219 87.351562 447.800781 87.25 C 447.851562 87.199219 447.898438 87.199219 447.949219 87.199219 C 448 87.148438 448.101562 87.148438 448.148438 87.148438 C 448.75 87.25 449.300781 87.550781 449.699219 87.949219 C 449.75 88 449.800781 88 449.800781 88.050781 C 450.148438 88.398438 450.449219 88.851562 450.648438 89.351562 C 450.648438 89.648438 450.648438 89.898438 450.601562 90 Z M 456.550781 84.300781 C 456.5 84.351562 456.449219 84.398438 456.351562 84.398438 L 454.800781 82.851562 L 454.398438 83.25 C 454.398438 83.25 454.398438 83.199219 454.351562 83.199219 C 454.101562 82.898438 453.898438 82.550781 453.75 82.199219 C 453.648438 81.898438 453.648438 81.648438 453.75 81.550781 C 453.800781 81.5 453.898438 81.449219 454 81.5 C 454.199219 81.5 454.449219 81.550781 454.648438 81.648438 C 454.949219 81.800781 455.199219 81.949219 455.449219 82.148438 C 455.550781 82.25 455.648438 82.300781 455.699219 82.398438 C 456.550781 83.199219 456.75 84.050781 456.550781 84.300781 Z M 461.601562 79.550781 C 461.550781 79.601562 461.5 79.601562 461.449219 79.601562 L 459.75 77.898438 L 459.351562 78.300781 C 459.351562 78.300781 459.351562 78.25 459.300781 78.25 C 458.75 77.550781 458.648438 76.898438 458.800781 76.75 C 458.851562 76.699219 458.949219 76.648438 459.050781 76.699219 C 459.5 76.75 459.949219 76.949219 460.300781 77.25 C 460.449219 77.351562 460.601562 77.5 460.699219 77.601562 C 461.550781 78.449219 461.800781 79.300781 461.601562 79.550781 Z M 461.601562 79.550781 "/>
    <use xlink:href="#surface8" mask="url(#mask1)"/>
    <use xlink:href="#surface11" mask="url(#mask2)"/>
    <use xlink:href="#surface14" mask="url(#mask3)"/>
    <use xlink:href="#surface17" mask="url(#mask4)"/>
    <use xlink:href="#surface20" mask="url(#mask5)"/>
    <use xlink:href="#surface23" mask="url(#mask6)"/>
    <path style=" stroke:none;fill-rule:nonzero;fill:rgb(100%,100%,100%);fill-opacity:1;" d="M 446.300781 83.148438 C 446 83.148438 445.800781 83.550781 445.800781 84.050781 C 445.800781 84.550781 446.050781 84.949219 446.300781 84.949219 C 446.550781 84.949219 446.800781 84.550781 446.800781 84.050781 C 446.800781 83.550781 446.601562 83.148438 446.300781 83.148438 Z M 446.300781 83.148438 "/>
    <path style=" stroke:none;fill-rule:nonzero;fill:rgb(100%,100%,100%);fill-opacity:1;" d="M 457.25 72.050781 C 456.949219 72.050781 456.75 72.449219 456.75 72.949219 C 456.75 73.449219 457 73.851562 457.25 73.851562 C 457.5 73.851562 457.75 73.449219 457.75 72.949219 C 457.75 72.449219 457.550781 72.050781 457.25 72.050781 Z M 457.25 72.050781 "/>
    <path style=" stroke:none;fill-rule:nonzero;fill:rgb(100%,100%,100%);fill-opacity:1;" d="M 451.601562 77.601562 C 451.300781 77.601562 451.101562 78 451.101562 78.5 C 451.101562 79 451.351562 79.398438 451.601562 79.398438 C 451.851562 79.398438 452.101562 79 452.101562 78.5 C 452.101562 78 451.898438 77.601562 451.601562 77.601562 Z M 451.601562 77.601562 "/>
    <path style=" stroke:none;fill-rule:nonzero;fill:rgb(49.411765%,67.45098%,74.901961%);fill-opacity:1;" d="M 457.085938 70.324219 C 456.933594 70.273438 456.835938 70.273438 456.734375 70.273438 L 455.085938 70.273438 C 454.984375 70.273438 454.835938 70.273438 454.734375 70.324219 Z M 457.085938 70.324219 "/>
    <path style=" stroke:none;fill-rule:nonzero;fill:rgb(49.411765%,67.45098%,74.901961%);fill-opacity:1;" d="M 447.050781 86.585938 C 446.902344 86.785156 446.800781 87.035156 446.75 87.285156 C 446.800781 87.035156 446.902344 86.835938 447.050781 86.683594 C 447.25 86.484375 447.5 86.335938 447.75 86.285156 L 447.699219 86.285156 C 447.449219 86.335938 447.25 86.433594 447.050781 86.585938 Z M 447.050781 86.585938 "/>
    <path style=" stroke:none;fill-rule:nonzero;fill:rgb(49.411765%,67.45098%,74.901961%);fill-opacity:1;" d="M 453.097656 80.925781 L 453.195312 80.824219 L 453.148438 80.875 C 453.148438 80.925781 453.097656 80.925781 453.097656 80.925781 Z M 453.097656 80.925781 "/>
    <path style=" stroke:none;fill-rule:nonzero;fill:rgb(49.411765%,67.45098%,74.901961%);fill-opacity:1;" d="M 443.25 80.699219 C 443.648438 78.5 444.648438 76.5 446.101562 74.800781 C 446.75 74.050781 447.449219 73.398438 448.199219 72.800781 L 448.199219 74.800781 L 448.199219 72.800781 C 450.101562 71.351562 452.398438 70.5 454.75 70.300781 L 457.101562 70.300781 C 458 70.398438 458.851562 70.550781 459.699219 70.800781 L 460.101562 73.898438 L 453.199219 80.851562 L 453.148438 80.898438 L 453.101562 80.949219 L 447.75 86.300781 L 447.648438 86.300781 C 447.398438 86.351562 447.199219 86.449219 447.050781 86.601562 C 446.851562 86.800781 446.75 87.050781 446.75 87.300781 L 445.25 88.800781 Z M 445.800781 84.050781 C 445.800781 84.550781 446.050781 84.949219 446.300781 84.949219 C 446.550781 84.949219 446.800781 84.550781 446.800781 84.050781 C 446.800781 83.550781 446.550781 83.148438 446.300781 83.148438 C 446.050781 83.148438 445.800781 83.550781 445.800781 84.050781 Z M 451.101562 78.5 C 451.101562 79 451.351562 79.398438 451.601562 79.398438 C 451.851562 79.398438 452.101562 79 452.101562 78.5 C 452.101562 78 451.851562 77.601562 451.601562 77.601562 C 451.351562 77.601562 451.101562 78 451.101562 78.5 Z M 456.75 72.949219 C 456.75 73.449219 457 73.851562 457.25 73.851562 C 457.5 73.851562 457.75 73.449219 457.75 72.949219 C 457.75 72.449219 457.5 72.050781 457.25 72.050781 C 457 72.050781 456.75 72.449219 456.75 72.949219 Z M 456.75 72.949219 "/>
    <path style=" stroke:none;fill-rule:nonzero;fill:rgb(2.745098%,37.254902%,65.490196%);fill-opacity:1;" d="M 91.308594 335.148438 C 91.308594 342.550781 85.3125 348.550781 77.910156 348.550781 C 70.511719 348.550781 64.511719 342.550781 64.511719 335.148438 C 64.511719 327.75 70.511719 321.75 77.910156 321.75 C 85.3125 321.75 91.308594 327.75 91.308594 335.148438 Z M 91.308594 335.148438 "/>
    <path style=" stroke:none;fill-rule:nonzero;fill:rgb(100%,100%,100%);fill-opacity:1;" d="M 78.058594 345.550781 L 77.308594 345.550781 C 77.308594 345.398438 77.308594 345.300781 77.308594 345.148438 C 77.359375 343.699219 77.410156 342.300781 77.511719 340.851562 C 77.511719 340.648438 77.359375 340.449219 77.160156 340.398438 C 77.109375 340.398438 77.109375 340.398438 77.058594 340.398438 C 76.261719 340.5 75.460938 340.601562 74.660156 340.699219 C 74.011719 340.800781 73.308594 340.898438 72.609375 341 C 72.660156 340.75 72.761719 340.550781 72.808594 340.351562 C 72.859375 340.148438 72.910156 340 72.960938 339.800781 C 73.058594 339.5 72.960938 339.199219 72.710938 339.050781 C 72.011719 338.449219 71.261719 337.898438 70.558594 337.300781 L 68.359375 335.5 C 68.308594 335.449219 68.308594 335.449219 68.261719 335.398438 C 68.558594 335.25 68.859375 335.101562 69.160156 335 C 69.460938 334.851562 69.511719 334.75 69.460938 334.398438 C 69.210938 333.5 68.960938 332.648438 68.761719 331.75 C 68.761719 331.699219 68.710938 331.601562 68.710938 331.5 C 69.011719 331.550781 69.261719 331.601562 69.558594 331.648438 C 70.109375 331.75 70.660156 331.898438 71.210938 332 C 71.558594 332.101562 71.761719 331.949219 71.859375 331.601562 C 71.960938 331.25 72.058594 330.898438 72.210938 330.550781 C 72.261719 330.601562 72.261719 330.648438 72.308594 330.75 C 72.960938 331.449219 73.609375 332.199219 74.210938 332.898438 C 74.410156 333.101562 74.609375 333.199219 74.761719 333.148438 C 75.011719 333 74.960938 332.800781 74.960938 332.601562 C 74.808594 331.648438 74.609375 330.75 74.460938 329.800781 C 74.308594 329.101562 74.210938 328.449219 74.058594 327.75 C 74.109375 327.75 74.160156 327.800781 74.210938 327.800781 C 74.558594 328 74.910156 328.148438 75.308594 328.351562 C 75.761719 328.550781 75.960938 328.5 76.210938 328.050781 L 77.660156 325.351562 C 77.710938 325.300781 77.710938 325.25 77.761719 325.148438 C 77.808594 325.25 77.859375 325.300781 77.859375 325.351562 L 79.359375 328.101562 C 79.460938 328.398438 79.761719 328.550781 80.058594 328.449219 C 80.109375 328.449219 80.160156 328.398438 80.210938 328.351562 C 80.609375 328.148438 80.960938 327.949219 81.359375 327.75 C 81.359375 327.75 81.410156 327.75 81.460938 327.699219 C 81.410156 328.050781 81.308594 328.398438 81.261719 328.75 C 81.011719 330 80.808594 331.199219 80.558594 332.449219 C 80.511719 332.601562 80.511719 332.75 80.558594 332.851562 C 80.558594 333 80.710938 333.148438 80.859375 333.148438 C 80.910156 333.148438 80.960938 333.148438 81.011719 333.101562 C 81.109375 333.050781 81.210938 333 81.261719 332.898438 C 81.910156 332.199219 82.511719 331.5 83.160156 330.800781 C 83.210938 330.75 83.261719 330.699219 83.359375 330.601562 C 83.460938 330.898438 83.558594 331.199219 83.609375 331.449219 C 83.761719 332.101562 83.960938 332.101562 84.511719 332 C 85.261719 331.851562 85.960938 331.699219 86.710938 331.550781 C 86.761719 331.550781 86.761719 331.550781 86.808594 331.550781 C 86.808594 331.648438 86.761719 331.699219 86.761719 331.800781 C 86.511719 332.648438 86.261719 333.550781 86.058594 334.398438 C 85.960938 334.800781 86.011719 334.898438 86.359375 335.050781 C 86.660156 335.199219 86.910156 335.300781 87.210938 335.449219 C 87.160156 335.5 87.109375 335.550781 87.058594 335.550781 L 82.859375 338.949219 C 82.761719 339 82.710938 339.101562 82.609375 339.148438 C 82.410156 339.300781 82.359375 339.550781 82.410156 339.800781 C 82.511719 340.148438 82.609375 340.5 82.710938 340.851562 C 82.710938 340.898438 82.761719 340.949219 82.761719 341.050781 L 80.710938 340.75 C 79.960938 340.648438 79.160156 340.550781 78.410156 340.449219 C 78.210938 340.398438 77.960938 340.5 77.910156 340.75 C 77.910156 340.800781 77.910156 340.851562 77.910156 340.949219 C 77.960938 342.398438 77.960938 343.800781 78.011719 345.25 C 78.058594 345.25 78.058594 345.398438 78.058594 345.550781 Z M 78.058594 345.550781 "/>
    <path style=" stroke:none;fill-rule:nonzero;fill:rgb(2.745098%,37.254902%,65.490196%);fill-opacity:1;" d="M 29.898438 214.75 C 37.300781 214.75 43.300781 220.75 43.300781 228.148438 C 43.300781 235.550781 37.300781 241.550781 29.898438 241.550781 C 22.5 241.550781 16.5 235.550781 16.5 228.148438 C 16.5 220.75 22.5 214.75 29.898438 214.75 Z M 29.898438 214.75 "/>
    <use xlink:href="#surface26"/>
    <path style=" stroke:none;fill-rule:nonzero;fill:rgb(2.745098%,37.254902%,65.490196%);fill-opacity:1;" d="M 95.265625 257.113281 C 95.265625 264.515625 89.265625 270.515625 81.863281 270.515625 C 74.464844 270.515625 68.464844 264.515625 68.464844 257.113281 C 68.464844 249.714844 74.464844 243.714844 81.863281 243.714844 C 89.265625 243.714844 95.265625 249.714844 95.265625 257.113281 Z M 95.265625 257.113281 "/>
    <path style=" stroke:none;fill-rule:nonzero;fill:rgb(82.352941%,6.27451%,20.392157%);fill-opacity:1;" d="M 81.894531 244.945312 L 81.894531 257.144531 L 94.09375 257.144531 C 94.042969 250.394531 88.59375 244.945312 81.894531 244.945312 Z M 81.894531 244.945312 "/>
    <path style=" stroke:none;fill-rule:nonzero;fill:rgb(100%,100%,100%);fill-opacity:1;" d="M 81.894531 269.292969 C 88.59375 269.292969 94.042969 263.84375 94.09375 257.144531 L 81.894531 257.144531 Z M 87.496094 260.542969 L 87.945312 259.042969 L 88.445312 260.542969 L 89.945312 260.542969 L 88.695312 261.445312 L 89.144531 262.894531 L 87.945312 261.996094 L 86.746094 262.894531 L 87.195312 261.394531 L 86.042969 260.496094 Z M 87.496094 260.542969 "/>
    <path style=" stroke:none;fill-rule:nonzero;fill:rgb(0%,32.156863%,57.647059%);fill-opacity:1;" d="M 69.695312 257.144531 C 69.695312 263.84375 75.144531 269.292969 81.84375 269.34375 L 81.84375 257.144531 Z M 69.695312 257.144531 "/>
    <path style=" stroke:none;fill-rule:nonzero;fill:rgb(100%,100%,100%);fill-opacity:1;" d="M 81.894531 244.945312 C 75.144531 244.945312 69.695312 250.394531 69.695312 257.09375 L 81.894531 257.09375 Z M 76.996094 254.792969 L 75.792969 253.894531 L 74.59375 254.792969 L 75.042969 253.292969 L 73.84375 252.445312 L 75.292969 252.445312 L 75.746094 250.945312 L 76.246094 252.445312 L 77.746094 252.445312 L 76.542969 253.34375 Z M 76.996094 254.792969 "/>
    <path style=" stroke:none;fill-rule:nonzero;fill:rgb(0%,32.156863%,57.647059%);fill-opacity:1;" d="M 76.195312 252.445312 L 76.496094 253.34375 L 77.695312 252.445312 Z M 76.195312 252.445312 "/>
    <path style=" stroke:none;fill-rule:nonzero;fill:rgb(0%,32.156863%,57.647059%);fill-opacity:1;" d="M 74.59375 254.792969 L 75.792969 253.894531 L 75.042969 253.292969 Z M 74.59375 254.792969 "/>
    <path style=" stroke:none;fill-rule:nonzero;fill:rgb(0%,32.156863%,57.647059%);fill-opacity:1;" d="M 75.292969 252.445312 L 75.042969 253.34375 L 75.792969 253.945312 L 76.496094 253.394531 L 76.195312 252.445312 Z M 75.292969 252.445312 "/>
    <path style=" stroke:none;fill-rule:nonzero;fill:rgb(0%,32.156863%,57.647059%);fill-opacity:1;" d="M 76.996094 254.792969 L 76.542969 253.34375 L 75.84375 253.894531 Z M 76.996094 254.792969 "/>
    <path style=" stroke:none;fill-rule:nonzero;fill:rgb(0%,32.156863%,57.647059%);fill-opacity:1;" d="M 73.84375 252.445312 L 75.042969 253.34375 L 75.292969 252.445312 C 75.292969 252.445312 73.84375 252.445312 73.84375 252.445312 Z M 73.84375 252.445312 "/>
    <path style=" stroke:none;fill-rule:nonzero;fill:rgb(0%,32.156863%,57.647059%);fill-opacity:1;" d="M 75.746094 250.996094 L 75.292969 252.496094 L 76.195312 252.496094 Z M 75.746094 250.996094 "/>
    <path style=" stroke:none;fill-rule:nonzero;fill:rgb(82.352941%,6.27451%,20.392157%);fill-opacity:1;" d="M 87.445312 260.542969 L 85.996094 260.542969 L 87.195312 261.445312 Z M 87.445312 260.542969 "/>
    <path style=" stroke:none;fill-rule:nonzero;fill:rgb(82.352941%,6.27451%,20.392157%);fill-opacity:1;" d="M 86.792969 262.894531 L 87.996094 261.996094 L 87.195312 261.445312 Z M 86.792969 262.894531 "/>
    <path style=" stroke:none;fill-rule:nonzero;fill:rgb(82.352941%,6.27451%,20.392157%);fill-opacity:1;" d="M 87.945312 259.09375 L 87.496094 260.542969 L 88.394531 260.542969 Z M 87.945312 259.09375 "/>
    <path style=" stroke:none;fill-rule:nonzero;fill:rgb(82.352941%,6.27451%,20.392157%);fill-opacity:1;" d="M 87.945312 261.996094 L 88.644531 261.445312 L 88.34375 260.496094 L 87.445312 260.496094 L 87.195312 261.445312 Z M 87.945312 261.996094 "/>
    <path style=" stroke:none;fill-rule:nonzero;fill:rgb(82.352941%,6.27451%,20.392157%);fill-opacity:1;" d="M 89.144531 262.894531 L 88.695312 261.496094 L 87.996094 262.042969 Z M 89.144531 262.894531 "/>
    <path style=" stroke:none;fill-rule:nonzero;fill:rgb(82.352941%,6.27451%,20.392157%);fill-opacity:1;" d="M 89.894531 260.542969 L 88.394531 260.542969 L 88.695312 261.496094 Z M 89.894531 260.542969 "/>
    <path style=" stroke:none;fill-rule:nonzero;fill:rgb(2.745098%,37.254902%,65.490196%);fill-opacity:1;" d="M 146.898438 283.25 C 154.300781 283.25 160.300781 289.25 160.300781 296.648438 C 160.300781 304.050781 154.300781 310.050781 146.898438 310.050781 C 139.5 310.050781 133.5 304.050781 133.5 296.648438 C 133.5 289.25 139.5 283.25 146.898438 283.25 Z M 146.898438 283.25 "/>
    <use xlink:href="#surface29"/>
  </g>
</svg>
